<?xml version="1.0" encoding="utf-8"?>
<!-- Generator: Adobe Illustrator 17.0.0, SVG Export Plug-In . SVG Version: 6.00 Build 0)  -->
<!DOCTYPE svg PUBLIC "-//W3C//DTD SVG 1.1//EN" "http://www.w3.org/Graphics/SVG/1.1/DTD/svg11.dtd">
<svg version="1.1" xmlns="http://www.w3.org/2000/svg" xmlns:xlink="http://www.w3.org/1999/xlink" x="0px" y="0px" width="550px"
	 height="150px" viewBox="0 0 550 150" enable-background="new 0 0 550 150" xml:space="preserve">
<g id="Ebene_2">
</g>
<g id="Ebene_1">
	<path fill="#E6E6E6" d="M80.05,93.574l-4.35,3.563l-5.484,4.492l-9.644,7.891l-2.597,2.127l-5.409,4.425l-1.399,1.148
		c9.257,9.885,21.72,16.92,35.803,19.58l0.281-1.629l1.19-6.941l0.553-3.241l2.063-12.035l1.216-7.083l0.893-5.206l1.198-7.003
		c-3.347-0.787-6.358-2.401-8.787-4.608L80.05,93.574z"/>
	<path fill="#E6E6E6" d="M107.928,92.134c-2.672,1.317-5.696,2.066-8.905,2.066c-0.218,0-0.435-0.011-0.651-0.016l-1.21,7.071
		l-0.884,5.15c0.822,0.061,1.648,0.09,2.484,0.09c5.687,0,11.027-1.42,15.668-3.912l-2.637-4.234L107.928,92.134z"/>
	<path fill="#E6E6E6" d="M73.384,56.021l-5.438-4.522C63.054,57.499,59.975,65,59.492,73h7.055h5.852h7.121
		c0.394-3,1.685-6.377,3.637-8.959L77.748,59.6L73.384,56.021z"/>
	<path fill="#E6E6E6" d="M58.401,38.537l2.586,2.136l9.618,7.928l5.476,4.511l4.345,3.575l5.436,4.484
		c2.372-2.069,5.273-3.583,8.484-4.344l-1.188-6.866l-0.899-5.202l-1.219-7.085l-2.081-12.031l-0.556-3.242l-1.482-8.578
		l-0.108-0.623c-13.971,2.676-26.34,9.653-35.552,19.453l0.937,0.769L58.401,38.537z"/>
	<path fill="#E6E6E6" d="M67.599,98.645l5.453-4.46l4.386-3.587l5.491-4.484C81.024,83.485,79.791,81,79.474,77h-7.12h-5.842h-7.048
		H46.83c0.372,11,4.465,21.357,11.124,29.553L67.599,98.645z"/>
	<path fill="#E6E6E6" d="M125.432,81.486c0.498-1.98,0.768-4.047,0.768-6.173c0-2.579-0.393-5.068-1.119-7.425l-7.065,2.533
		c0.418,1.536,0.64,3.157,0.64,4.82c0,1.322-0.138,2.611-0.405,3.855L125.432,81.486z"/>
	<path fill="#E6E6E6" d="M124.181,85.198l-7.156-2.38c-1.279,2.822-3.248,5.287-5.701,7.196l3.893,6.263l2.617,4.202l4.031,6.48
		c6.5-4.337,11.598-10.488,14.504-17.705l-7.551-2.512L124.181,85.198z"/>
	<path fill="#E6E6E6" d="M98.35,56.301c0.224-0.008,0.447-0.021,0.672-0.021c2.943,0,5.732,0.633,8.237,1.757l3.674-6.187
		l2.554-4.302l3.862-6.497l6.287-10.586c-7.287-3.702-15.581-5.802-24.391-5.802c-2.133,0-4.23,0.13-6.295,0.364l2.08,12.045
		l1.232,7.146l0.889,5.151L98.35,56.301z"/>
	<path fill="#E6E6E6" d="M133.734,21.316l-0.132,0.217l-4.769,8.033l-1.694,2.848L120.851,43l-3.888,6.547l-2.534,4.264
		l-3.692,6.217c2.456,1.764,4.467,4.075,5.85,6.743l7.059-2.525l4.613-1.653l7.488-2.678l11.859-4.242l3.192-1.145l8.969-3.208
		l0.24-0.089C154.746,38.767,145.474,28.299,133.734,21.316z"/>
	<g>
		<path fill="#E6E6E6" d="M203.385,50.344c-1.368-0.481-2.787-0.722-4.255-0.722c-3.343,0-6.148,1.343-8.073,4.027
			C189.131,56.335,188,60.084,188,64.896V72h-5v2h5v32h3V74h11v-2h-11v-7.104c0-4.204,0.696-7.409,2.165-9.612
			c1.469-2.204,3.577-3.306,6.364-3.306c1.165,0,2.257,0.178,3.296,0.532c1.038,0.355,1.882,0.811,2.541,1.368l1.289-1.672
			C205.844,51.446,204.753,50.826,203.385,50.344z"/>
		<path fill="#E6E6E6" d="M238.948,71.811c-1.723-1.874-3.75-3.355-6.079-4.445c-2.331-1.089-4.813-1.634-7.447-1.634
			c-2.634,0-5.104,0.545-7.409,1.634c-2.306,1.09-4.319,2.572-6.041,4.445c-1.723,1.875-3.078,4.054-4.065,6.536
			c-0.988,2.482-1.482,5.117-1.482,7.902c0,2.736,0.481,5.346,1.444,7.827c0.962,2.482,2.305,4.648,4.027,6.497
			c1.722,1.85,3.735,3.318,6.041,4.407c2.305,1.089,4.799,1.634,7.485,1.634c2.634,0,5.116-0.545,7.447-1.634
			c2.329-1.089,4.356-2.558,6.079-4.407c1.721-1.849,3.077-4.015,4.065-6.497c0.988-2.481,1.482-5.091,1.482-7.827
			c0-2.785-0.494-5.42-1.482-7.902C242.025,75.865,240.669,73.686,238.948,71.811z M240.506,93.126
			c-0.887,2.204-2.078,4.117-3.572,5.737c-1.495,1.622-3.242,2.914-5.243,3.876c-2.001,0.963-4.116,1.443-6.345,1.443
			c-2.23,0-4.345-0.468-6.345-1.405c-2.002-0.938-3.736-2.216-5.205-3.838c-1.47-1.621-2.635-3.521-3.496-5.699
			c-0.862-2.178-1.292-4.483-1.292-6.915c0-2.481,0.443-4.825,1.33-7.028c0.886-2.205,2.077-4.129,3.571-5.776
			c1.494-1.646,3.229-2.951,5.205-3.914c1.976-0.962,4.078-1.444,6.307-1.444c2.229,0,4.332,0.482,6.307,1.444
			c1.976,0.963,3.71,2.255,5.205,3.875c1.494,1.621,2.685,3.533,3.572,5.738c0.886,2.203,1.33,4.521,1.33,6.953
			S241.392,90.923,240.506,93.126z"/>
		<path fill="#E6E6E6" d="M282.261,71.811c-1.723-1.874-3.75-3.355-6.079-4.445c-2.331-1.089-4.813-1.634-7.447-1.634
			c-2.634,0-5.104,0.545-7.409,1.634c-2.306,1.09-4.319,2.572-6.041,4.445c-1.723,1.875-3.078,4.054-4.065,6.536
			c-0.988,2.482-1.482,5.117-1.482,7.902c0,2.736,0.481,5.346,1.444,7.827c0.962,2.482,2.305,4.648,4.027,6.497
			c1.722,1.85,3.735,3.318,6.041,4.407c2.305,1.089,4.799,1.634,7.485,1.634c2.634,0,5.116-0.545,7.447-1.634
			c2.329-1.089,4.356-2.558,6.079-4.407c1.722-1.849,3.077-4.015,4.065-6.497c0.988-2.481,1.481-5.091,1.481-7.827
			c0-2.785-0.493-5.42-1.481-7.902C285.338,75.865,283.982,73.686,282.261,71.811z M283.818,93.126
			c-0.887,2.204-2.078,4.117-3.571,5.737c-1.495,1.622-3.242,2.914-5.243,3.876c-2.001,0.963-4.116,1.443-6.345,1.443
			c-2.23,0-4.345-0.468-6.345-1.405c-2.002-0.938-3.736-2.216-5.205-3.838c-1.47-1.621-2.635-3.521-3.496-5.699
			c-0.862-2.178-1.292-4.483-1.292-6.915c0-2.481,0.443-4.825,1.33-7.028c0.886-2.205,2.077-4.129,3.571-5.776
			c1.494-1.646,3.229-2.951,5.205-3.914c1.976-0.962,4.078-1.444,6.307-1.444c2.229,0,4.332,0.482,6.307,1.444
			c1.976,0.963,3.71,2.255,5.205,3.875c1.493,1.621,2.685,3.533,3.571,5.738c0.886,2.203,1.33,4.521,1.33,6.953
			S284.704,90.923,283.818,93.126z"/>
		<path fill="#E6E6E6" d="M330,101.751V51h-3v24.307c-1-1.266-1.715-2.482-2.803-3.648c-1.09-1.165-2.27-2.191-3.586-3.078
			c-1.318-0.886-2.75-1.583-4.32-2.09c-1.57-0.506-3.236-0.76-5.009-0.76c-2.635,0-5.063,0.558-7.292,1.672
			c-2.229,1.115-4.153,2.61-5.773,4.483c-1.622,1.875-2.887,4.054-3.799,6.536c-0.912,2.482-1.368,5.091-1.368,7.826
			c0,2.584,0.468,5.092,1.406,7.523c0.937,2.432,2.253,4.597,3.951,6.497c1.696,1.899,3.711,3.433,6.041,4.597
			c2.33,1.165,4.863,1.748,7.599,1.748c1.469,0,2.939-0.216,4.407-0.646s2.861-1.026,4.18-1.786c1.316-0.76,2.422-1.684,3.563-2.773
			C325.338,100.32,326,99.117,327,97.8v4.863c0,0.811,0.426,1.558,1.035,2.241c0.607,0.685,1.381,1.026,2.242,1.026
			c0.305,0,0.723-0.026,0.723-0.076v-2.432C330,103.423,330,102.866,330,101.751z M327,92.784c0,1.521-0.676,2.977-1.662,4.369
			c-0.988,1.395-2.182,2.61-3.625,3.647c-1.443,1.039-2.99,1.862-4.662,2.47c-1.672,0.608-3.236,0.912-4.704,0.912
			c-2.331,0-4.507-0.494-6.532-1.481c-2.027-0.988-3.798-2.305-5.318-3.951s-2.71-3.546-3.571-5.699
			c-0.862-2.153-1.292-4.42-1.292-6.802c0-2.279,0.38-4.495,1.14-6.648c0.76-2.152,1.836-4.079,3.23-5.776
			c1.393-1.697,3.078-3.064,5.054-4.104c1.976-1.038,4.179-1.558,6.61-1.558c1.52,0,3.078,0.292,4.674,0.874
			c1.596,0.583,3.09,1.368,4.482,2.355s2.6,2.154,3.715,3.496c1.113,1.343,2.461,2.774,2.461,4.294V92.784z"/>
		<path fill="#E6E6E6" d="M455.71,93.276c-0.396-0.915-0.842-1.843-1.336-2.783c-0.495-0.938-0.965-1.854-1.41-2.745
			c-0.347-0.692-0.668-1.459-0.964-2.301c-0.249-0.692-0.509-1.509-0.779-2.449c-0.272-0.938-0.482-1.978-0.631-3.116
			c0.742-0.891,1.31-1.62,1.706-2.189c0.396-0.568,0.692-1.05,0.891-1.447c0.197-0.396,0.346-0.717,0.445-0.966
			c0.099-0.493-0.05-0.976-0.445-1.446c-0.396-0.47-0.916-0.902-1.558-1.299c-0.792-0.396-1.683-0.408-2.672-0.037
			c-0.99,0.371-1.955,0.928-2.895,1.67c-0.939,0.742-1.756,1.571-2.448,2.485c-0.693,0.917-1.139,1.72-1.336,2.413
			c-0.248,0.842-0.186,1.584,0.186,2.227c0.371,0.644,0.507,1.163,0.408,1.559c-0.05,0.147-0.322,0.582-0.816,1.298
			c-0.495,0.718-1.039,1.534-1.633,2.449c-0.594,0.916-1.188,1.807-1.78,2.672c-0.476,0.694-0.852,1.23-1.137,1.622
			c-0.553,0.62-1.145,1.274-1.794,1.977c-1.51,1.633-3.143,3.204-4.898,4.712c-1.756,1.51-3.55,2.796-5.38,3.859
			c-1.831,1.064-3.587,1.595-5.269,1.595c-0.792,0-1.571-0.111-2.338-0.334c-0.768-0.222-1.446-0.593-2.04-1.112
			s-1.089-1.199-1.484-2.041c-0.396-0.841-0.619-1.88-0.668-3.117c0.742-0.543,1.607-1.149,2.598-1.817
			c0.988-0.668,2.027-1.373,3.116-2.115c0.989-0.692,2.041-1.459,3.154-2.301c1.113-0.84,2.163-1.78,3.153-2.819
			c0.989-1.039,1.843-2.201,2.561-3.488c0.717-1.285,1.15-2.695,1.299-4.229c0.099-1.385-0.272-2.548-1.113-3.488
			c-0.842-0.939-2.202-1.411-4.082-1.411c-1.979,0-3.945,0.62-5.899,1.855c-1.954,1.238-3.71,2.796-5.269,4.676
			c-1.559,1.881-2.869,3.945-3.933,6.196c-0.921,1.948-1.496,3.805-1.768,5.585c-0.952,1.267-1.935,2.515-2.982,3.727
			c-1.41,1.633-2.856,3.043-4.341,4.23s-2.846,1.78-4.082,1.78c-1.583,0-2.103-1.235-1.558-3.71l2.522-10.018
			c0.297-1.336,0.507-2.721,0.631-4.156c0.123-1.435,0.049-2.77-0.223-4.007c-0.272-1.236-0.768-2.251-1.484-3.043
			c-0.717-0.791-1.743-1.188-3.079-1.188c-1.139,0-2.276,0.272-3.414,0.817c-1.139,0.545-2.238,1.237-3.302,2.078
			c-1.064,0.842-2.078,1.794-3.043,2.857c-0.964,1.064-1.843,2.114-2.634,3.153c0.148-1.188,0.197-2.338,0.148-3.45
			c-0.05-1.113-0.235-2.078-0.557-2.895c-0.322-0.816-0.768-1.472-1.336-1.967c-0.569-0.493-1.274-0.742-2.115-0.742
			c-1.088,0-2.188,0.249-3.302,0.742c-1.113,0.496-2.215,1.164-3.303,2.004c-1.088,0.842-2.164,1.794-3.228,2.857
			c-1.064,1.064-2.066,2.188-3.006,3.376c0.396-1.533,0.692-2.695,0.891-3.487c0.544-2.721,0.024-4.082-1.559-4.082
			c-0.347,0-0.768,0.074-1.261,0.223c-0.396,0.1-0.916,0.248-1.559,0.445c-0.644,0.198-1.386,0.495-2.227,0.891
			c0.099,0.347,0.136,0.779,0.111,1.299c-0.025,0.52-0.087,1.052-0.186,1.596c-0.1,0.593-0.223,1.213-0.371,1.854l-4.675,19.368
			c-0.247,1.089-0.297,1.905-0.148,2.449s0.383,0.902,0.705,1.076c0.321,0.173,0.668,0.234,1.039,0.186
			c0.371-0.05,0.68-0.124,0.928-0.223l3.71-1.633c0.099-0.346,0.173-0.717,0.223-1.113c0.049-0.396,0.169-0.767,0.269-1.113
			c0.099-0.395,0.343-0.79,0.343-1.187v0.148c1-4.057,1.92-7.358,3.181-9.907c1.262-2.547,2.512-4.538,3.799-5.974
			c1.286-1.435,2.438-2.399,3.476-2.895c1.039-0.493,1.775-0.741,2.221-0.741c0.594,0,1.048,0.174,1.37,0.519
			c0.321,0.347,0.481,0.99,0.481,1.93c0,1.336-0.186,2.907-0.557,4.712c-0.371,1.807-0.805,3.612-1.299,5.418
			c-0.495,1.806-1.002,3.476-1.522,5.009c-0.52,1.534-0.879,2.647-1.076,3.339c-0.396,1.436-0.445,2.338-0.148,2.709
			s0.939,0.531,1.93,0.482c0.346-0.05,0.742-0.124,1.187-0.223c0.841-0.148,1.731-0.471,2.672-0.965
			c0.741-4.452,1.768-8.126,3.079-11.02c1.311-2.895,2.646-5.194,4.007-6.901s2.622-2.906,3.785-3.6
			c1.162-0.692,1.94-1.039,2.338-1.039c0.84,0,1.434,0.347,1.78,1.039c0.346,0.693,0.371,1.683,0.074,2.969
			c-0.248,1.039-0.545,2.227-0.891,3.562c-0.347,1.336-0.693,2.709-1.038,4.119c-0.347,1.409-0.631,2.782-0.854,4.118
			s-0.334,2.523-0.334,3.563c0,1.038,0.173,1.892,0.52,2.56c0.345,0.668,0.803,1.199,1.372,1.596
			c0.568,0.396,1.188,0.668,1.855,0.816s1.348,0.223,2.041,0.223c2.078,0,4.081-0.619,6.011-1.855s3.747-2.771,5.454-4.601
			c0.87-0.933,1.703-1.904,2.502-2.908c0.11,0.686,0.253,1.345,0.467,1.943c0.618,1.732,1.447,3.143,2.486,4.229
			c1.038,1.089,2.188,1.893,3.45,2.412s2.437,0.779,3.525,0.779c2.077,0,4.217-0.495,6.419-1.484c2.2-0.989,4.353-2.288,6.456-3.896
			c2.102-1.607,4.093-3.438,5.974-5.492c1.435-1.568,2.754-3.173,3.96-4.814c0.129-0.163,0.267-0.337,0.418-0.529
			c0.643-0.816,1.323-1.707,2.041-2.671c0.717-0.965,1.385-1.893,2.004-2.783c0.618-0.891,1.05-1.533,1.298-1.93
			c0.099,0.198,0.234,0.557,0.408,1.076c0.173,0.52,0.358,1.052,0.557,1.596c0.197,0.644,0.445,1.336,0.742,2.078
			c0.346,0.99,0.767,2.077,1.262,3.265c0.494,1.188,0.952,2.363,1.373,3.525c0.42,1.162,0.729,2.251,0.928,3.265
			c0.197,1.015,0.197,1.794,0,2.338c-0.198,0.545-0.508,0.99-0.928,1.336c-0.421,0.347-0.866,0.619-1.336,0.815
			c-0.471,0.198-0.94,0.297-1.41,0.297c-0.471,0-0.854-0.099-1.15-0.297c-0.248-0.196-0.52-0.567-0.815-1.112
			c-0.249-0.494-0.569-1.175-0.965-2.041c-0.396-0.865-0.842-2.065-1.336-3.6c-0.594,0.198-1.113,0.371-1.559,0.52
			s-0.792,0.297-1.039,0.445c-0.297,0.198-0.545,0.371-0.742,0.52c-0.495,0.445-0.866,0.842-1.112,1.188
			c-0.249,0.347-0.52,0.816-0.816,1.41c-0.248,0.445-0.211,1.089,0.111,1.929c0.321,0.842,0.816,1.695,1.483,2.561
			c0.668,0.865,1.484,1.62,2.449,2.264c0.965,0.643,1.967,0.965,3.006,0.965c1.483,0,2.905-0.396,4.267-1.188
			c1.36-0.792,2.571-1.744,3.636-2.857c1.063-1.113,1.954-2.263,2.672-3.45c0.717-1.188,1.15-2.201,1.299-3.043
			c0.099-0.544,0.024-1.212-0.223-2.003C456.427,95.046,456.105,94.192,455.71,93.276z M415.489,86.523
			c0.692-1.607,1.435-2.969,2.226-4.081c0.791-1.113,1.596-1.967,2.412-2.561s1.521-0.891,2.115-0.891
			c0.544,0,0.965,0.211,1.262,0.631c0.297,0.421,0.395,1.102,0.297,2.041c-0.101,0.891-0.569,1.955-1.41,3.19
			c-0.842,1.237-2.326,2.672-4.453,4.305c-0.693,0.545-1.385,1.051-2.077,1.521c-0.693,0.471-1.336,0.928-1.93,1.373
			C414.276,89.973,414.796,88.132,415.489,86.523z"/>
		<path fill="#E6E6E6" d="M502.869,89.195c-0.223-0.223-0.52-0.321-0.891-0.297c-0.371,0.025-0.73,0.235-1.076,0.63
			c-0.396,0.397-0.891,0.94-1.484,1.633c-0.594,0.693-1.236,1.423-1.929,2.189c-0.693,0.768-1.41,1.521-2.152,2.264
			c-0.742,0.741-1.41,1.36-2.004,1.854c-2.622,2.128-4.589,3.402-5.899,3.822c-1.312,0.421-2.188,0.235-2.634-0.557
			c-0.347-0.594-0.396-1.286-0.148-2.078c0.247-0.791,0.594-1.756,1.038-2.894c0.643-1.633,1.199-3.067,1.67-4.305
			c0.47-1.235,0.854-2.361,1.15-3.376c0.297-1.014,0.531-1.941,0.705-2.783c0.173-0.841,0.26-1.657,0.26-2.448
			c0.049-1.286-0.05-2.362-0.297-3.229c-0.248-0.865-0.606-1.559-1.076-2.078c-0.471-0.52-1.015-0.891-1.633-1.114
			c-0.619-0.222-1.274-0.333-1.966-0.333c-1.336,0-2.598,0.285-3.785,0.853c-1.188,0.57-2.313,1.288-3.376,2.153
			c-1.064,0.866-2.041,1.818-2.932,2.857c-0.891,1.038-1.658,2.053-2.3,3.042c1.087-4.304,2.274-8.349,3.562-12.133
			c1.286-3.785,2.449-7.681,3.487-11.688c0.247-1.088,0.47-2.103,0.668-3.042c0.099-0.791,0.16-1.559,0.186-2.301
			c0.024-0.742-0.111-1.236-0.408-1.484c-0.1-0.247-0.322-0.408-0.667-0.482c-0.348-0.074-0.718-0.111-1.113-0.111
			c-0.445,0-0.94,0.05-1.484,0.148c-0.545,0.1-1.089,0.223-1.633,0.371c-0.445,0.1-0.903,0.223-1.373,0.371
			c-0.471,0.148-0.903,0.347-1.298,0.593c0.148,0.693,0.223,1.46,0.223,2.301c0,0.842-0.051,1.658-0.148,2.449
			c-0.101,0.891-0.223,1.807-0.371,2.746c-0.297,1.336-0.842,3.736-1.633,7.198c-0.693,2.919-1.683,7.15-2.969,12.69
			c-1.287,5.541-3.042,12.888-5.269,22.039c0.148,0.545,0.371,0.978,0.668,1.299s0.594,0.581,0.891,0.779
			c0.346,0.197,0.717,0.346,1.113,0.445c0.346,0.049,0.692,0.074,1.039,0.074c0.297,0,0.617-0.05,0.964-0.148
			c0.346-0.1,0.668-0.272,0.965-0.52c0.346-1.435,0.705-3.08,1.076-4.935c0.371-1.855,0.729-3.574,1.076-5.158
			c0.396-1.879,0.791-3.784,1.188-5.714c0.643-1.039,1.384-2.102,2.226-3.19c0.841-1.088,1.719-2.065,2.635-2.932
			c0.915-0.865,1.83-1.569,2.746-2.114c0.914-0.544,1.768-0.816,2.56-0.816c1.138,0,1.781,0.557,1.93,1.669
			c0.148,1.113,0.037,2.462-0.334,4.045c-0.371,1.584-0.866,3.228-1.484,4.935c-0.619,1.707-1.102,3.18-1.447,4.415
			c-0.545,1.979-0.829,3.625-0.853,4.936c-0.026,1.311,0.407,2.535,1.298,3.673c0.989,1.286,1.991,1.93,3.006,1.93
			c1.014,0,2.264-0.421,3.747-1.262c1.336-0.742,2.721-1.682,4.156-2.82c1.434-1.137,2.856-2.349,4.267-3.636
			c1.41-1.286,2.733-2.609,3.97-3.97s2.325-2.684,3.266-3.971c0.396-0.544,0.605-1.039,0.631-1.484
			C503.19,89.751,503.092,89.418,502.869,89.195z"/>
	</g>
</g>
<g id="Ebene_3" display="none">
	<g display="inline">
		<path fill="#E6E6E6" d="M80.05,88.743l-4.35,3.563l-5.484,4.492l-9.644,7.891l-2.597,2.127l-5.409,4.425l-1.399,1.148
			c9.257,9.885,21.72,16.92,35.803,19.58l0.281-1.629l1.19-6.941l0.553-3.241l2.063-12.035l1.216-7.083l0.893-5.206l1.198-7.003
			c-3.347-0.787-6.358-2.401-8.787-4.608L80.05,88.743z"/>
		<path fill="#E6E6E6" d="M99.023,89.37c-0.218,0-0.435-0.011-0.651-0.016l-1.21,7.071l-0.884,5.15
			c0.822,0.061,1.648,0.09,2.484,0.09c5.687,0,11.027-1.42,15.668-3.912l-2.637-4.234l-3.864-6.216
			C105.256,88.621,102.232,89.37,99.023,89.37"/>
		<path fill="#E6E6E6" d="M59.492,68.245h7.055h5.852h7.121c0.394-3.339,1.685-6.415,3.637-8.997l-5.409-4.46l-4.364-3.598
			l-5.438-4.484C63.054,52.707,59.975,60.137,59.492,68.245"/>
		<path fill="#E6E6E6" d="M51.259,27.823l0.937,0.769l6.206,5.114l2.586,2.136l9.618,7.928l5.476,4.511l4.345,3.575l5.436,4.484
			c2.372-2.069,5.273-3.583,8.484-4.344l-1.188-6.866l-0.899-5.202l-1.219-7.084l-2.081-12.031l-0.556-3.242l-1.482-8.578
			L86.811,8.37C72.84,11.046,60.47,18.023,51.259,27.823"/>
		<path fill="#E6E6E6" d="M57.954,101.711l9.645-7.896l5.453-4.46l4.386-3.587l5.491-4.495c-1.904-2.63-3.138-5.749-3.454-9.126
			h-7.12h-5.842h-7.048H46.83C47.202,83.288,51.296,93.515,57.954,101.711"/>
		<path fill="#E6E6E6" d="M118.657,70.411c0,1.322-0.138,2.611-0.405,3.855l7.181,2.389c0.498-1.981,0.768-4.047,0.768-6.173
			c0-2.579-0.393-5.068-1.119-7.425l-7.065,2.533C118.435,67.127,118.657,68.748,118.657,70.411"/>
		<path fill="#E6E6E6" d="M111.324,85.184l3.893,6.263l2.617,4.202l4.031,6.48c6.5-4.337,11.598-10.488,14.504-17.705l-7.551-2.512
			l-4.638-1.545l-7.156-2.38C115.747,80.81,113.778,83.274,111.324,85.184"/>
		<path fill="#E6E6E6" d="M92.951,20.197l2.08,12.045l1.232,7.146l0.889,5.151l1.198,6.931c0.224-0.008,0.447-0.021,0.672-0.021
			c2.943,0,5.732,0.633,8.237,1.757l3.674-6.187l2.554-4.302l3.862-6.497l6.287-10.586c-7.287-3.702-15.581-5.802-24.391-5.802
			C97.114,19.833,95.017,19.963,92.951,20.197"/>
		<path fill="#E6E6E6" d="M133.602,16.703l-4.769,8.033l-1.694,2.848l-6.289,10.585l-3.888,6.547l-2.534,4.264l-3.692,6.217
			c2.456,1.764,4.467,4.075,5.851,6.743l7.059-2.525l4.613-1.653l7.488-2.678l11.859-4.242l3.192-1.145l8.969-3.208l0.24-0.089
			c-5.26-12.464-14.532-22.932-26.272-29.915L133.602,16.703z"/>
	</g>
	<text transform="matrix(1 0 0 1 180.3606 104.4517)" display="inline"><tspan x="0" y="0" fill="#E6E6E6" font-family="'Raleway-ExtraLight'" font-size="75.9887" letter-spacing="-2">f</tspan><tspan x="22.645" y="0" fill="#E6E6E6" font-family="'Raleway-ExtraLight'" font-size="75.9887" letter-spacing="-1">oo</tspan><tspan x="109.271" y="0" fill="#E6E6E6" font-family="'Raleway-ExtraLight'" font-size="75.9887">d</tspan><tspan x="155.623" y="0" fill="#E6E6E6" font-family="'Raleway-ExtraLight'" font-size="75.9887" letter-spacing="-3"> </tspan><tspan x="172.72" y="0" fill="#E6E6E6" font-family="'Satisfy'" font-size="75.9887">mesh</tspan></text>
</g>
</svg>
