<?xml version="1.0" encoding="utf-8"?>
<!-- Generator: Adobe Illustrator 17.0.0, SVG Export Plug-In . SVG Version: 6.00 Build 0)  -->
<!DOCTYPE svg PUBLIC "-//W3C//DTD SVG 1.1//EN" "http://www.w3.org/Graphics/SVG/1.1/DTD/svg11.dtd">
<svg version="1.1" id="Ebene_1" xmlns="http://www.w3.org/2000/svg" xmlns:xlink="http://www.w3.org/1999/xlink" x="0px" y="0px"
	 width="758.962px" height="534.897px" viewBox="0 0 758.962 534.897" enable-background="new 0 0 758.962 534.897"
	 xml:space="preserve">
<g>
	<g>
		<line fill="none" stroke="#CCCCCC" x1="64.89" y1="55.897" x2="64.89" y2="422.897"/>
		<line fill="none" stroke="#CCCCCC" x1="733.39" y1="422.397" x2="65.39" y2="422.397"/>
	</g>
	<g>
		<line fill="none" stroke="#CCCCCC" x1="160.89" y1="54.897" x2="160.89" y2="420.897"/>
		<line fill="none" stroke="#CCCCCC" x1="637.89" y1="54.897" x2="637.89" y2="420.897"/>
		<line fill="none" stroke="#CCCCCC" x1="542.89" y1="56.897" x2="542.89" y2="422.897"/>
		<line fill="none" stroke="#CCCCCC" x1="446.89" y1="420.897" x2="446.89" y2="54.897"/>
		<line fill="none" stroke="#CCCCCC" x1="351.89" y1="54.897" x2="351.89" y2="420.897"/>
		<line fill="none" stroke="#CCCCCC" x1="255.89" y1="54.897" x2="255.89" y2="420.897"/>
	</g>
	<g>
		<g opacity="0.5">
			<path fill="#2BA772" d="M65.39,231.092c0-1.378,21.526-23.787,47.881-49.798s69.252-19.81,95.349,13.781
				s69.003,19.355,95.359-31.633s69.266-39.572,95.363,25.369c26.097,64.941,69.01,86.223,95.366,47.293
				c26.355-38.93,69.27-39.917,95.367-2.192c26.097,37.724,68.906,39.416,95.133,3.758c26.226-35.657,47.684-8.377,47.684,60.698
				s-1.832,125.53-4.072,125.53c-2.239,0-151.281,0-331.204,0s-328.296,0-329.717,0c-1.421,0-2.509-2.695-2.509-6.14
				s0-46.29,0-95.211S65.39,232.47,65.39,231.092z"/>
		</g>
		<g opacity="0.5">
			<path fill="#2BA772" d="M65.39,231.092c0-1.378,21.526,18.283,47.881,43.691s69.252,31.609,95.349,13.781
				c26.097-17.829,69.003-62.365,95.359-98.97s69.266-25.189,95.363,25.369c26.097,50.558,69.01,74.869,95.366,54.026
				c26.355-20.843,69.27-21.83,95.367-2.192c26.097,19.637,68.906-8.656,95.133-62.874c26.226-54.218,47.684-26.938,47.684,60.698
				s-1.832,159.277-4.072,159.277c-2.239,0-151.281,0-331.204,0s-328.296,0-329.717,0c-1.421,0-2.509-2.695-2.509-6.14
				s0-46.29,0-95.211S65.39,232.47,65.39,231.092z"/>
		</g>
		<g opacity="0.5">
			<path fill="#2BA772" d="M733.39,231.092c0-1.378-21.813,18.283-48.168,43.691s-69.396,31.609-95.493,13.781
				c-26.097-17.829-69.075-62.365-95.43-98.97c-26.355-36.605-69.302-25.189-95.399,25.369
				c-26.097,50.558-69.028,74.869-95.384,54.026s-69.279-21.83-95.376-2.192c-26.097,19.637-68.911-8.656-95.137-62.874
				s-47.686-26.938-47.686,60.698s1.83,159.277,4.07,159.277c2.239,0,151.281,0,331.204,0s328.296,0,329.717,0
				c1.421,0,3.083-2.695,3.083-6.14s0-46.29,0-95.211S733.39,232.47,733.39,231.092z"/>
		</g>
	</g>
</g>
<g>
	
		<text transform="matrix(0.7071 -0.7071 0.7071 0.7071 141.7117 467.4706)" fill="#333333" font-family="'SourceSansPro-ExtraLight'" font-size="17.8522">Fett</text>
	
		<text transform="matrix(0.7071 -0.7071 0.7071 0.7071 318.791 481.1292)" fill="#333333" font-family="'SourceSansPro-ExtraLight'" font-size="17.8522">Eiweiß</text>
	
		<text transform="matrix(0.7071 -0.7071 0.7071 0.7071 412.3002 482.6098)" fill="#333333" font-family="'SourceSansPro-ExtraLight'" font-size="17.8522">Zucker</text>
	
		<text transform="matrix(0.7071 -0.7071 0.7071 0.7071 181.6743 522.4081)" fill="#333333" font-family="'SourceSansPro-ExtraLight'" font-size="17.8522">Kohlenhydrate</text>
	
		<text transform="matrix(0.7071 -0.7071 0.7071 0.7071 492.675 490.7463)" fill="#333333" font-family="'SourceSansPro-ExtraLight'" font-size="17.8522">Proteine</text>
	
		<text transform="matrix(0.7071 -0.7071 0.7071 0.7071 609.5523 468.4545)" fill="#333333" font-family="'SourceSansPro-ExtraLight'" font-size="17.8522">kcal</text>
</g>
<text transform="matrix(0 -1 1 0 47.8729 316.6323)" font-family="'SourceSansPro-ExtraLight'" font-size="17.8521">täglicher Tagesbedarf</text>
</svg>
