<?xml version="1.0" encoding="utf-8"?>
<!-- Generator: Adobe Illustrator 17.0.0, SVG Export Plug-In . SVG Version: 6.00 Build 0)  -->
<!DOCTYPE svg PUBLIC "-//W3C//DTD SVG 1.1//EN" "http://www.w3.org/Graphics/SVG/1.1/DTD/svg11.dtd">
<svg version="1.1" id="Ebene_1" xmlns="http://www.w3.org/2000/svg" xmlns:xlink="http://www.w3.org/1999/xlink" x="0px" y="0px"
	 width="960px" height="259.091px" viewBox="0 0 960 259.091" enable-background="new 0 0 960 259.091" xml:space="preserve">
<g>
	<g>
		<g>
			<path fill="#F2F2F2" d="M68.276,164.263l-9.027,5.184l-11.374,6.527l-19.996,11.482l-5.385,3.09l-11.22,6.437l-2.901,1.666
				c13.226,21.426,33.179,38.608,57.533,48.204l1.058-2.934l4.509-12.508l2.103-5.831l7.819-21.688l4.6-12.759l3.38-9.366
				l4.544-12.62c-5.738-2.566-10.584-6.558-14.187-11.461L68.276,164.263z"/>
		</g>
		<g>
			<path fill="#F2F2F2" d="M102.094,171.697c-0.394-0.074-0.777-0.164-1.164-0.249l-4.585,12.728l-3.347,9.282
				c1.45,0.383,2.925,0.714,4.425,0.989c10.197,1.878,20.264,1,29.44-2.094l-3.28-8.745l-4.806-12.811
				C113.529,172.363,107.847,172.751,102.094,171.697z"/>
		</g>
		<g>
			<path fill="#F2F2F2" d="M38.403,119.385l12.662,2.33l10.494,1.934l12.772,2.352c1.85-6.073,5.215-11.361,9.6-15.511
				l-8.179-10.072l-6.595-8.122l-8.226-10.126C50.11,91.695,42.04,104.484,38.403,119.385z"/>
		</g>
		<g>
			<path fill="#F2F2F2" d="M37.457,41.572l1.415,1.742l9.383,11.552l3.916,4.818l14.54,17.902l8.28,10.195l6.565,8.081l8.222,10.122
				c4.965-3.061,10.686-4.918,16.699-5.268l0.221-13.155l0.169-9.959l0.229-13.564l0.387-23.043l0.104-6.203l0.279-16.42
				l0.018-1.199C81.907,17.526,57.335,26.412,37.457,41.572z"/>
		</g>
		<g>
			<path fill="#F2F2F2" d="M24.197,181.059l20.001-11.48l11.312-6.491l9.094-5.221l11.391-6.538
				c-2.521-5.519-3.669-11.718-3.083-18.09l-12.77-2.354l-10.479-1.926l-12.646-2.326l-22.668-4.174
				C11.211,143.274,15.06,163.635,24.197,181.059z"/>
		</g>
		<g>
			<path fill="#F2F2F2" d="M143.802,142.953c-0.452,2.454-1.144,4.801-2.049,7.023l12.067,6.813
				c1.569-3.516,2.763-7.259,3.492-11.216c0.883-4.794,1.025-9.544,0.528-14.152l-13.546,2.365
				C144.52,136.781,144.371,139.857,143.802,142.953z"/>
		</g>
		<g>
			<path fill="#F2F2F2" d="M125.599,167.976l4.842,12.915l3.25,8.672l5.019,13.38c13.144-5.915,24.391-15.665,32.076-28.108
				l-12.692-7.16l-7.785-4.401l-12.03-6.79C135.022,161.314,130.651,165.247,125.599,167.976z"/>
		</g>
		<g>
			<path fill="#F2F2F2" d="M114.857,41.176l-0.389,23.058l-0.231,13.685l-0.165,9.866l-0.227,13.27
				c0.405,0.058,0.811,0.117,1.214,0.192c5.277,0.973,10.067,3.064,14.181,5.971l8.702-10.273l6.051-7.144l9.154-10.805
				l14.897-17.586c-11.805-9.288-25.97-15.926-41.769-18.83C122.455,41.878,118.639,41.415,114.857,41.176z"/>
		</g>
		<g>
			<path fill="#F2F2F2" d="M188.978,48.109l-11.303,13.343l-4.009,4.736l-14.91,17.595l-9.21,10.876l-5.995,7.077l-8.754,10.333
				c3.801,4.094,6.616,9.051,8.189,14.459l13.523-2.362l8.836-1.541l14.353-2.508l22.731-3.968l6.11-1.071l17.19-2.997l0.457-0.078
				c-5.176-24.893-18.226-47.41-36.894-64.26L188.978,48.109z"/>
		</g>
	</g>
	<g>
		<path fill="#F2F2F2" d="M320.396,81.195c-3.059-1.53-6.118-2.141-8.87-2.141c-8.259,0-11.93,6.423-11.93,17.435v17.435h17.435
			v4.283h-17.435v68.822h-4.588v-68.822h-10.094v-3.671l10.094-0.612V95.877c0-14.376,6.423-21.106,16.823-21.106
			c3.059,0,6.729,0.918,10.094,2.447L320.396,81.195z"/>
		<path fill="#F2F2F2" d="M357.406,112.089c17.435,0,32.423,14.07,32.423,38.541c0,24.164-14.988,38.234-32.423,38.234
			s-32.423-14.07-32.423-38.234C324.983,126.159,339.971,112.089,357.406,112.089z M357.406,184.581
			c15.6,0,27.529-13.765,27.529-33.952c0-20.188-11.929-34.258-27.529-34.258c-15.6,0-27.529,14.07-27.529,34.258
			C329.877,170.817,341.806,184.581,357.406,184.581z"/>
		<path fill="#F2F2F2" d="M438.765,112.089c17.435,0,32.423,14.07,32.423,38.541c0,24.164-14.988,38.234-32.423,38.234
			s-32.423-14.07-32.423-38.234C406.342,126.159,421.33,112.089,438.765,112.089z M438.765,184.581
			c15.6,0,27.529-13.765,27.529-33.952c0-20.188-11.929-34.258-27.529-34.258c-15.6,0-27.529,14.07-27.529,34.258
			C411.236,170.817,423.166,184.581,438.765,184.581z"/>
		<path fill="#F2F2F2" d="M520.431,112.089c8.87,0,14.988,3.365,22.635,9.176L542.76,107.5V76.607h4.588v110.422h-3.977
			l-0.611-9.788h-0.306c-6.118,6.117-14.377,11.623-24.471,11.623c-18.353,0-30.282-13.458-30.282-38.234
			C487.701,127.076,502.689,112.089,520.431,112.089z M518.289,184.581c8.564,0,16.212-4.588,24.471-12.847v-45.27
			c-8.259-7.341-14.988-10.094-22.635-10.094c-15.601,0-27.529,15.294-27.529,34.258
			C492.596,170.817,501.771,184.581,518.289,184.581z"/>
		<path fill="#F2F2F2" d="M604.847,112.7h10.399l1.071,10.706h0.459c6.423-7.035,14.223-12.541,23.094-12.541
			c11.317,0,17.435,5.353,20.493,14.223c7.8-8.412,15.447-14.223,24.471-14.223c15.294,0,22.635,10.094,22.635,29.058v47.105
			h-12.541v-45.423c0-13.917-4.436-19.882-13.765-19.882c-5.812,0-11.776,3.823-18.658,11.471v53.834h-12.541v-45.423
			c0-13.917-4.436-19.882-13.918-19.882c-5.506,0-11.776,3.823-18.658,11.471v53.834h-12.541V112.7z"/>
		<path fill="#F2F2F2" d="M759.461,110.865c18.964,0,29.67,13.612,29.67,34.87c0,2.601-0.153,5.048-0.459,6.883h-50.164
			c0.918,16.059,10.553,26.152,24.776,26.152c7.035,0,13-2.294,18.506-5.812l4.436,8.259c-6.424,4.129-14.377,7.646-24.471,7.646
			c-19.882,0-35.635-14.529-35.635-38.846C726.12,125.7,742.484,110.865,759.461,110.865z M778.119,144.359
			c0-15.141-6.729-23.553-18.353-23.553c-10.399,0-19.882,8.565-21.411,23.553H778.119z"/>
		<path fill="#F2F2F2" d="M805.49,170.205c6.424,5.2,13,8.87,21.87,8.87c9.788,0,14.683-5.199,14.683-11.623
			c0-7.646-8.871-11.012-16.977-14.07c-10.553-3.823-22.176-8.87-22.176-21.412c0-11.929,9.481-21.105,25.54-21.105
			c9.33,0,17.436,3.824,23.094,8.412l-5.964,7.953c-5.047-3.823-10.4-6.576-16.977-6.576c-9.329,0-13.611,5.047-13.611,10.706
			c0,6.883,8.105,9.636,16.518,12.847c10.705,3.977,22.635,8.412,22.635,22.482c0,12.082-9.636,22.176-27.224,22.176
			c-10.553,0-20.646-4.435-27.682-10.247L805.49,170.205z"/>
		<path fill="#F2F2F2" d="M871.556,78.136h12.541v29.67l-0.459,15.294c7.035-6.729,14.529-12.235,24.776-12.235
			c15.6,0,22.635,10.094,22.635,29.058v47.105h-12.541v-45.423c0-13.917-4.282-19.882-14.07-19.882
			c-7.646,0-12.847,3.976-20.341,11.471v53.834h-12.541V78.136z"/>
	</g>
</g>
</svg>
