<?xml version="1.0" encoding="utf-8"?>
<!-- Generator: Adobe Illustrator 17.0.0, SVG Export Plug-In . SVG Version: 6.00 Build 0)  -->
<!DOCTYPE svg PUBLIC "-//W3C//DTD SVG 1.1//EN" "http://www.w3.org/Graphics/SVG/1.1/DTD/svg11.dtd">
<svg version="1.1" id="Ebene_1" xmlns="http://www.w3.org/2000/svg" xmlns:xlink="http://www.w3.org/1999/xlink" x="0px" y="0px"
	 width="283.46px" height="85.667px" viewBox="0 0 283.46 85.667" enable-background="new 0 0 283.46 85.667" xml:space="preserve">
<g>
	<g>
		<g>
			<path fill="#F2F2F2" d="M36.089,51.94l-2.222,1.276l-2.8,1.607l-4.923,2.827l-1.326,0.761l-2.762,1.585l-0.714,0.41
				c3.256,5.275,8.168,9.505,14.164,11.868l0.26-0.722l1.11-3.079l0.518-1.436l1.925-5.339l1.133-3.141l0.832-2.306l1.119-3.107
				c-1.413-0.632-2.606-1.615-3.493-2.822L36.089,51.94z"/>
		</g>
		<g>
			<path fill="#F2F2F2" d="M44.415,53.77c-0.097-0.018-0.191-0.04-0.287-0.061l-1.129,3.133l-0.824,2.285
				c0.357,0.094,0.72,0.176,1.089,0.244c2.51,0.462,4.989,0.246,7.248-0.515l-0.808-2.153l-1.183-3.154
				C47.23,53.934,45.831,54.029,44.415,53.77z"/>
		</g>
		<g>
			<path fill="#F2F2F2" d="M28.734,40.891l3.117,0.574l2.584,0.476l3.144,0.579c0.455-1.495,1.284-2.797,2.363-3.819l-2.014-2.48
				l-1.624-2l-2.025-2.493C31.617,34.074,29.63,37.223,28.734,40.891z"/>
		</g>
		<g>
			<path fill="#F2F2F2" d="M28.501,21.734l0.348,0.429l2.31,2.844l0.964,1.186l3.58,4.407l2.038,2.51l1.616,1.989l2.024,2.492
				c1.222-0.753,2.631-1.211,4.111-1.297l0.054-3.239l0.042-2.452l0.056-3.339l0.095-5.673l0.026-1.527l0.069-4.043l0.005-0.295
				C39.445,15.814,33.395,18.002,28.501,21.734z"/>
		</g>
		<g>
			<path fill="#F2F2F2" d="M25.237,56.075l4.924-2.826l2.785-1.598l2.239-1.285l2.804-1.61c-0.621-1.359-0.903-2.885-0.759-4.454
				l-3.144-0.58l-2.58-0.474l-3.113-0.573l-5.581-1.028C22.04,46.772,22.988,51.785,25.237,56.075z"/>
		</g>
		<g>
			<path fill="#F2F2F2" d="M54.683,46.693c-0.111,0.604-0.282,1.182-0.504,1.729l2.971,1.677c0.386-0.866,0.68-1.787,0.86-2.761
				c0.217-1.18,0.252-2.35,0.13-3.484l-3.335,0.582C54.86,45.174,54.823,45.931,54.683,46.693z"/>
		</g>
		<g>
			<path fill="#F2F2F2" d="M50.201,52.854l1.192,3.18l0.8,2.135l1.236,3.294c3.236-1.456,6.005-3.857,7.897-6.92l-3.125-1.763
				l-1.917-1.084l-2.962-1.672C52.521,51.214,51.445,52.182,50.201,52.854z"/>
		</g>
		<g>
			<path fill="#F2F2F2" d="M47.557,21.636l-0.096,5.677l-0.057,3.369l-0.041,2.429l-0.056,3.267c0.1,0.014,0.2,0.029,0.299,0.047
				c1.299,0.239,2.478,0.754,3.491,1.47l2.142-2.529l1.49-1.759l2.254-2.66l3.668-4.33c-2.906-2.287-6.394-3.921-10.283-4.636
				C49.427,21.809,48.488,21.696,47.557,21.636z"/>
		</g>
		<g>
			<path fill="#F2F2F2" d="M65.805,23.343l-2.783,3.285l-0.987,1.166l-3.671,4.332l-2.267,2.677l-1.476,1.742l-2.155,2.544
				c0.936,1.008,1.629,2.228,2.016,3.56l3.329-0.581l2.175-0.38l3.534-0.617l5.596-0.977l1.504-0.264l4.232-0.738l0.113-0.019
				c-1.274-6.129-4.487-11.672-9.083-15.82L65.805,23.343z"/>
		</g>
	</g>
	<g>
		<path fill="#F2F2F2" d="M98.158,31.496c-0.753-0.376-1.506-0.527-2.183-0.527c-2.033,0-2.937,1.581-2.937,4.291v4.292h4.292v1.054
			h-4.292v16.939h-1.129V40.605h-2.484v-0.903l2.484-0.151v-4.442c0-3.539,1.581-5.195,4.141-5.195c0.753,0,1.656,0.226,2.484,0.603
			L98.158,31.496z"/>
		<path fill="#F2F2F2" d="M107.27,39.1c4.292,0,7.98,3.463,7.98,9.486c0,5.947-3.689,9.411-7.98,9.411s-7.98-3.464-7.98-9.411
			C99.289,42.563,102.978,39.1,107.27,39.1z M107.27,56.942c3.84,0,6.776-3.388,6.776-8.356c0-4.969-2.936-8.432-6.776-8.432
			s-6.776,3.463-6.776,8.432C100.494,53.555,103.43,56.942,107.27,56.942z"/>
		<path fill="#F2F2F2" d="M127.299,39.1c4.292,0,7.98,3.463,7.98,9.486c0,5.947-3.689,9.411-7.98,9.411s-7.98-3.464-7.98-9.411
			C119.319,42.563,123.008,39.1,127.299,39.1z M127.299,56.942c3.839,0,6.776-3.388,6.776-8.356c0-4.969-2.937-8.432-6.776-8.432
			c-3.84,0-6.776,3.463-6.776,8.432C120.523,53.555,123.459,56.942,127.299,56.942z"/>
		<path fill="#F2F2F2" d="M147.405,39.1c2.183,0,3.688,0.828,5.571,2.259L152.9,37.97v-7.604h1.13v27.179h-0.979l-0.151-2.409
			h-0.075c-1.506,1.506-3.538,2.861-6.022,2.861c-4.518,0-7.454-3.313-7.454-9.411C139.349,42.789,143.038,39.1,147.405,39.1z
			 M146.878,56.942c2.108,0,3.99-1.129,6.022-3.162V42.638c-2.032-1.807-3.688-2.484-5.571-2.484c-3.839,0-6.775,3.764-6.775,8.432
			C140.554,53.555,142.813,56.942,146.878,56.942z"/>
		<path fill="#F2F2F2" d="M168.189,39.25h2.56l0.264,2.635h0.112c1.581-1.731,3.501-3.087,5.685-3.087
			c2.786,0,4.291,1.318,5.044,3.501c1.92-2.07,3.803-3.501,6.023-3.501c3.765,0,5.571,2.485,5.571,7.153v11.594h-3.087v-11.18
			c0-3.426-1.092-4.894-3.388-4.894c-1.431,0-2.898,0.941-4.593,2.823v13.25h-3.087v-11.18c0-3.426-1.092-4.894-3.426-4.894
			c-1.354,0-2.898,0.941-4.592,2.823v13.25h-3.087V39.25z"/>
		<path fill="#F2F2F2" d="M206.252,38.798c4.668,0,7.303,3.351,7.303,8.583c0,0.641-0.037,1.242-0.112,1.694h-12.348
			c0.227,3.952,2.598,6.437,6.099,6.437c1.731,0,3.2-0.564,4.555-1.43l1.092,2.032c-1.581,1.017-3.538,1.883-6.022,1.883
			c-4.895,0-8.771-3.576-8.771-9.562C198.046,42.45,202.074,38.798,206.252,38.798z M210.845,47.042
			c0-3.726-1.656-5.797-4.518-5.797c-2.56,0-4.894,2.108-5.27,5.797H210.845z"/>
		<path fill="#F2F2F2" d="M217.587,53.404c1.581,1.279,3.199,2.184,5.383,2.184c2.409,0,3.613-1.28,3.613-2.861
			c0-1.882-2.183-2.71-4.178-3.463c-2.598-0.941-5.459-2.184-5.459-5.271c0-2.936,2.334-5.195,6.287-5.195
			c2.296,0,4.291,0.941,5.684,2.07l-1.468,1.958c-1.242-0.941-2.56-1.619-4.179-1.619c-2.296,0-3.35,1.242-3.35,2.635
			c0,1.694,1.995,2.371,4.065,3.162c2.635,0.979,5.571,2.07,5.571,5.533c0,2.974-2.372,5.459-6.701,5.459
			c-2.597,0-5.082-1.092-6.813-2.522L217.587,53.404z"/>
		<path fill="#F2F2F2" d="M233.851,30.743h3.087v7.303l-0.113,3.765c1.731-1.656,3.576-3.012,6.099-3.012
			c3.839,0,5.571,2.485,5.571,7.153v11.594h-3.087v-11.18c0-3.426-1.055-4.894-3.464-4.894c-1.882,0-3.162,0.979-5.006,2.823v13.25
			h-3.087V30.743z"/>
	</g>
</g>
<g>
	<g>
		<g>
			<path fill="#F2F2F2" d="M35.089,51.94l-2.222,1.276l-2.8,1.607l-4.923,2.827l-1.326,0.761l-2.762,1.585l-0.714,0.41
				c3.256,5.275,8.168,9.505,14.164,11.868l0.26-0.722l1.11-3.079l0.518-1.436l1.925-5.339l1.133-3.141l0.832-2.306l1.119-3.107
				c-1.413-0.632-2.606-1.615-3.493-2.822L35.089,51.94z"/>
		</g>
		<g>
			<path fill="#F2F2F2" d="M43.415,53.77c-0.097-0.018-0.191-0.04-0.287-0.061l-1.129,3.133l-0.824,2.285
				c0.357,0.094,0.72,0.176,1.089,0.244c2.51,0.462,4.989,0.246,7.248-0.515l-0.808-2.153l-1.183-3.154
				C46.23,53.934,44.831,54.029,43.415,53.77z"/>
		</g>
		<g>
			<path fill="#F2F2F2" d="M27.734,40.891l3.117,0.574l2.584,0.476l3.144,0.579c0.455-1.495,1.284-2.797,2.363-3.819l-2.014-2.48
				l-1.624-2l-2.025-2.493C30.617,34.074,28.63,37.223,27.734,40.891z"/>
		</g>
		<g>
			<path fill="#F2F2F2" d="M27.501,21.734l0.348,0.429l2.31,2.844l0.964,1.186l3.58,4.407l2.038,2.51l1.616,1.989l2.024,2.492
				c1.222-0.753,2.631-1.211,4.111-1.297l0.054-3.239l0.042-2.452l0.056-3.339l0.095-5.673l0.026-1.527l0.069-4.043l0.005-0.295
				C38.445,15.814,32.395,18.002,27.501,21.734z"/>
		</g>
		<g>
			<path fill="#F2F2F2" d="M24.237,56.075l4.924-2.826l2.785-1.598l2.239-1.285l2.804-1.61c-0.621-1.359-0.903-2.885-0.759-4.454
				l-3.144-0.58l-2.58-0.474l-3.113-0.573l-5.581-1.028C21.04,46.772,21.988,51.785,24.237,56.075z"/>
		</g>
		<g>
			<path fill="#F2F2F2" d="M53.683,46.693c-0.111,0.604-0.282,1.182-0.504,1.729l2.971,1.677c0.386-0.866,0.68-1.787,0.86-2.761
				c0.217-1.18,0.252-2.35,0.13-3.484l-3.335,0.582C53.86,45.174,53.823,45.931,53.683,46.693z"/>
		</g>
		<g>
			<path fill="#F2F2F2" d="M49.201,52.854l1.192,3.18l0.8,2.135l1.236,3.294c3.236-1.456,6.005-3.857,7.897-6.92l-3.125-1.763
				l-1.917-1.084l-2.962-1.672C51.521,51.214,50.445,52.182,49.201,52.854z"/>
		</g>
		<g>
			<path fill="#F2F2F2" d="M46.557,21.636l-0.096,5.677l-0.057,3.369l-0.041,2.429l-0.056,3.267c0.1,0.014,0.2,0.029,0.299,0.047
				c1.299,0.239,2.478,0.754,3.491,1.47l2.142-2.529l1.49-1.759l2.254-2.66l3.668-4.33c-2.906-2.287-6.394-3.921-10.283-4.636
				C48.427,21.809,47.488,21.696,46.557,21.636z"/>
		</g>
		<g>
			<path fill="#F2F2F2" d="M64.805,23.343l-2.783,3.285l-0.987,1.166l-3.671,4.332l-2.267,2.677l-1.476,1.742l-2.155,2.544
				c0.936,1.008,1.629,2.228,2.016,3.56l3.329-0.581l2.175-0.38l3.534-0.617l5.596-0.977l1.504-0.264l4.232-0.738l0.113-0.019
				c-1.274-6.129-4.487-11.672-9.083-15.82L64.805,23.343z"/>
		</g>
	</g>
	<g>
		<path fill="#F2F2F2" d="M97.158,31.496c-0.753-0.376-1.506-0.527-2.183-0.527c-2.033,0-2.937,1.581-2.937,4.291v4.292h4.292v1.054
			h-4.292v16.939h-1.129V40.605h-2.484v-0.903l2.484-0.151v-4.442c0-3.539,1.581-5.195,4.141-5.195c0.753,0,1.656,0.226,2.484,0.603
			L97.158,31.496z"/>
		<path fill="#F2F2F2" d="M106.27,39.1c4.292,0,7.98,3.463,7.98,9.486c0,5.947-3.689,9.411-7.98,9.411s-7.98-3.464-7.98-9.411
			C98.289,42.563,101.978,39.1,106.27,39.1z M106.27,56.942c3.84,0,6.776-3.388,6.776-8.356c0-4.969-2.936-8.432-6.776-8.432
			s-6.776,3.463-6.776,8.432C99.494,53.555,102.43,56.942,106.27,56.942z"/>
		<path fill="#F2F2F2" d="M126.299,39.1c4.292,0,7.98,3.463,7.98,9.486c0,5.947-3.689,9.411-7.98,9.411s-7.98-3.464-7.98-9.411
			C118.319,42.563,122.008,39.1,126.299,39.1z M126.299,56.942c3.839,0,6.776-3.388,6.776-8.356c0-4.969-2.937-8.432-6.776-8.432
			c-3.84,0-6.776,3.463-6.776,8.432C119.523,53.555,122.459,56.942,126.299,56.942z"/>
		<path fill="#F2F2F2" d="M146.405,39.1c2.183,0,3.688,0.828,5.571,2.259L151.9,37.97v-7.604h1.13v27.179h-0.979l-0.151-2.409
			h-0.075c-1.506,1.506-3.538,2.861-6.022,2.861c-4.518,0-7.454-3.313-7.454-9.411C138.349,42.789,142.038,39.1,146.405,39.1z
			 M145.878,56.942c2.108,0,3.99-1.129,6.022-3.162V42.638c-2.032-1.807-3.688-2.484-5.571-2.484c-3.839,0-6.775,3.764-6.775,8.432
			C139.554,53.555,141.813,56.942,145.878,56.942z"/>
		<path fill="#F2F2F2" d="M167.189,39.25h2.56l0.264,2.635h0.112c1.581-1.731,3.501-3.087,5.685-3.087
			c2.786,0,4.291,1.318,5.044,3.501c1.92-2.07,3.803-3.501,6.023-3.501c3.765,0,5.571,2.485,5.571,7.153v11.594h-3.087v-11.18
			c0-3.426-1.092-4.894-3.388-4.894c-1.431,0-2.898,0.941-4.593,2.823v13.25h-3.087v-11.18c0-3.426-1.092-4.894-3.426-4.894
			c-1.354,0-2.898,0.941-4.592,2.823v13.25h-3.087V39.25z"/>
		<path fill="#F2F2F2" d="M205.252,38.798c4.668,0,7.303,3.351,7.303,8.583c0,0.641-0.037,1.242-0.112,1.694h-12.348
			c0.227,3.952,2.598,6.437,6.099,6.437c1.731,0,3.2-0.564,4.555-1.43l1.092,2.032c-1.581,1.017-3.538,1.883-6.022,1.883
			c-4.895,0-8.771-3.576-8.771-9.562C197.046,42.45,201.074,38.798,205.252,38.798z M209.845,47.042
			c0-3.726-1.656-5.797-4.518-5.797c-2.56,0-4.894,2.108-5.27,5.797H209.845z"/>
		<path fill="#F2F2F2" d="M216.587,53.404c1.581,1.279,3.199,2.184,5.383,2.184c2.409,0,3.613-1.28,3.613-2.861
			c0-1.882-2.183-2.71-4.178-3.463c-2.598-0.941-5.459-2.184-5.459-5.271c0-2.936,2.334-5.195,6.287-5.195
			c2.296,0,4.291,0.941,5.684,2.07l-1.468,1.958c-1.242-0.941-2.56-1.619-4.179-1.619c-2.296,0-3.35,1.242-3.35,2.635
			c0,1.694,1.995,2.371,4.065,3.162c2.635,0.979,5.571,2.07,5.571,5.533c0,2.974-2.372,5.459-6.701,5.459
			c-2.597,0-5.082-1.092-6.813-2.522L216.587,53.404z"/>
		<path fill="#F2F2F2" d="M232.851,30.743h3.087v7.303l-0.113,3.765c1.731-1.656,3.576-3.012,6.099-3.012
			c3.839,0,5.571,2.485,5.571,7.153v11.594h-3.087v-11.18c0-3.426-1.055-4.894-3.464-4.894c-1.882,0-3.162,0.979-5.006,2.823v13.25
			h-3.087V30.743z"/>
	</g>
</g>
<g>
	<g>
		<g>
			<path fill="#F2F2F2" d="M36.089,51.94l-2.222,1.276l-2.8,1.607l-4.923,2.827l-1.326,0.761l-2.762,1.585l-0.714,0.41
				c3.256,5.275,8.168,9.505,14.164,11.868l0.26-0.722l1.11-3.079l0.518-1.436l1.925-5.339l1.133-3.141l0.832-2.306l1.119-3.107
				c-1.413-0.632-2.606-1.615-3.493-2.822L36.089,51.94z"/>
		</g>
		<g>
			<path fill="#F2F2F2" d="M44.415,53.77c-0.097-0.018-0.191-0.04-0.287-0.061l-1.129,3.133l-0.824,2.285
				c0.357,0.094,0.72,0.176,1.089,0.244c2.51,0.462,4.989,0.246,7.248-0.515l-0.808-2.153l-1.183-3.154
				C47.23,53.934,45.831,54.029,44.415,53.77z"/>
		</g>
		<g>
			<path fill="#F2F2F2" d="M28.734,40.891l3.117,0.574l2.584,0.476l3.144,0.579c0.455-1.495,1.284-2.797,2.363-3.819l-2.014-2.48
				l-1.624-2l-2.025-2.493C31.617,34.074,29.63,37.223,28.734,40.891z"/>
		</g>
		<g>
			<path fill="#F2F2F2" d="M28.501,21.734l0.348,0.429l2.31,2.844l0.964,1.186l3.58,4.407l2.038,2.51l1.616,1.989l2.024,2.492
				c1.222-0.753,2.631-1.211,4.111-1.297l0.054-3.239l0.042-2.452l0.056-3.339l0.095-5.673l0.026-1.527l0.069-4.043l0.005-0.295
				C39.445,15.814,33.395,18.002,28.501,21.734z"/>
		</g>
		<g>
			<path fill="#F2F2F2" d="M25.237,56.075l4.924-2.826l2.785-1.598l2.239-1.285l2.804-1.61c-0.621-1.359-0.903-2.885-0.759-4.454
				l-3.144-0.58l-2.58-0.474l-3.113-0.573l-5.581-1.028C22.04,46.772,22.988,51.785,25.237,56.075z"/>
		</g>
		<g>
			<path fill="#F2F2F2" d="M54.683,46.693c-0.111,0.604-0.282,1.182-0.504,1.729l2.971,1.677c0.386-0.866,0.68-1.787,0.86-2.761
				c0.217-1.18,0.252-2.35,0.13-3.484l-3.335,0.582C54.86,45.174,54.823,45.931,54.683,46.693z"/>
		</g>
		<g>
			<path fill="#F2F2F2" d="M50.201,52.854l1.192,3.18l0.8,2.135l1.236,3.294c3.236-1.456,6.005-3.857,7.897-6.92l-3.125-1.763
				l-1.917-1.084l-2.962-1.672C52.521,51.214,51.445,52.182,50.201,52.854z"/>
		</g>
		<g>
			<path fill="#F2F2F2" d="M47.557,21.636l-0.096,5.677l-0.057,3.369l-0.041,2.429l-0.056,3.267c0.1,0.014,0.2,0.029,0.299,0.047
				c1.299,0.239,2.478,0.754,3.491,1.47l2.142-2.529l1.49-1.759l2.254-2.66l3.668-4.33c-2.906-2.287-6.394-3.921-10.283-4.636
				C49.427,21.809,48.488,21.696,47.557,21.636z"/>
		</g>
		<g>
			<path fill="#F2F2F2" d="M65.805,23.343l-2.783,3.285l-0.987,1.166l-3.671,4.332l-2.267,2.677l-1.476,1.742l-2.155,2.544
				c0.936,1.008,1.629,2.228,2.016,3.56l3.329-0.581l2.175-0.38l3.534-0.617l5.596-0.977l1.504-0.264l4.232-0.738l0.113-0.019
				c-1.274-6.129-4.487-11.672-9.083-15.82L65.805,23.343z"/>
		</g>
	</g>
	<g>
		<path fill="#F2F2F2" d="M98.158,31.496c-0.753-0.376-1.506-0.527-2.183-0.527c-2.033,0-2.937,1.581-2.937,4.291v4.292h4.292v1.054
			h-4.292v16.939h-1.129V40.605h-2.484v-0.903l2.484-0.151v-4.442c0-3.539,1.581-5.195,4.141-5.195c0.753,0,1.656,0.226,2.484,0.603
			L98.158,31.496z"/>
		<path fill="#F2F2F2" d="M107.27,39.1c4.292,0,7.98,3.463,7.98,9.486c0,5.947-3.689,9.411-7.98,9.411s-7.98-3.464-7.98-9.411
			C99.289,42.563,102.978,39.1,107.27,39.1z M107.27,56.942c3.84,0,6.776-3.388,6.776-8.356c0-4.969-2.936-8.432-6.776-8.432
			s-6.776,3.463-6.776,8.432C100.494,53.555,103.43,56.942,107.27,56.942z"/>
		<path fill="#F2F2F2" d="M127.299,39.1c4.292,0,7.98,3.463,7.98,9.486c0,5.947-3.689,9.411-7.98,9.411s-7.98-3.464-7.98-9.411
			C119.319,42.563,123.008,39.1,127.299,39.1z M127.299,56.942c3.839,0,6.776-3.388,6.776-8.356c0-4.969-2.937-8.432-6.776-8.432
			c-3.84,0-6.776,3.463-6.776,8.432C120.523,53.555,123.459,56.942,127.299,56.942z"/>
		<path fill="#F2F2F2" d="M147.405,39.1c2.183,0,3.688,0.828,5.571,2.259L152.9,37.97v-7.604h1.13v27.179h-0.979l-0.151-2.409
			h-0.075c-1.506,1.506-3.538,2.861-6.022,2.861c-4.518,0-7.454-3.313-7.454-9.411C139.349,42.789,143.038,39.1,147.405,39.1z
			 M146.878,56.942c2.108,0,3.99-1.129,6.022-3.162V42.638c-2.032-1.807-3.688-2.484-5.571-2.484c-3.839,0-6.775,3.764-6.775,8.432
			C140.554,53.555,142.813,56.942,146.878,56.942z"/>
		<path fill="#F2F2F2" d="M168.189,39.25h2.56l0.264,2.635h0.112c1.581-1.731,3.501-3.087,5.685-3.087
			c2.786,0,4.291,1.318,5.044,3.501c1.92-2.07,3.803-3.501,6.023-3.501c3.765,0,5.571,2.485,5.571,7.153v11.594h-3.087v-11.18
			c0-3.426-1.092-4.894-3.388-4.894c-1.431,0-2.898,0.941-4.593,2.823v13.25h-3.087v-11.18c0-3.426-1.092-4.894-3.426-4.894
			c-1.354,0-2.898,0.941-4.592,2.823v13.25h-3.087V39.25z"/>
		<path fill="#F2F2F2" d="M206.252,38.798c4.668,0,7.303,3.351,7.303,8.583c0,0.641-0.037,1.242-0.112,1.694h-12.348
			c0.227,3.952,2.598,6.437,6.099,6.437c1.731,0,3.2-0.564,4.555-1.43l1.092,2.032c-1.581,1.017-3.538,1.883-6.022,1.883
			c-4.895,0-8.771-3.576-8.771-9.562C198.046,42.45,202.074,38.798,206.252,38.798z M210.845,47.042
			c0-3.726-1.656-5.797-4.518-5.797c-2.56,0-4.894,2.108-5.27,5.797H210.845z"/>
		<path fill="#F2F2F2" d="M217.587,53.404c1.581,1.279,3.199,2.184,5.383,2.184c2.409,0,3.613-1.28,3.613-2.861
			c0-1.882-2.183-2.71-4.178-3.463c-2.598-0.941-5.459-2.184-5.459-5.271c0-2.936,2.334-5.195,6.287-5.195
			c2.296,0,4.291,0.941,5.684,2.07l-1.468,1.958c-1.242-0.941-2.56-1.619-4.179-1.619c-2.296,0-3.35,1.242-3.35,2.635
			c0,1.694,1.995,2.371,4.065,3.162c2.635,0.979,5.571,2.07,5.571,5.533c0,2.974-2.372,5.459-6.701,5.459
			c-2.597,0-5.082-1.092-6.813-2.522L217.587,53.404z"/>
		<path fill="#F2F2F2" d="M233.851,30.743h3.087v7.303l-0.113,3.765c1.731-1.656,3.576-3.012,6.099-3.012
			c3.839,0,5.571,2.485,5.571,7.153v11.594h-3.087v-11.18c0-3.426-1.055-4.894-3.464-4.894c-1.882,0-3.162,0.979-5.006,2.823v13.25
			h-3.087V30.743z"/>
	</g>
</g>
<g>
	<g>
		<g>
			<path fill="#F2F2F2" d="M35.089,51.94l-2.222,1.276l-2.8,1.607l-4.923,2.827l-1.326,0.761l-2.762,1.585l-0.714,0.41
				c3.256,5.275,8.168,9.505,14.164,11.868l0.26-0.722l1.11-3.079l0.518-1.436l1.925-5.339l1.133-3.141l0.832-2.306l1.119-3.107
				c-1.413-0.632-2.606-1.615-3.493-2.822L35.089,51.94z"/>
		</g>
		<g>
			<path fill="#F2F2F2" d="M43.415,53.77c-0.097-0.018-0.191-0.04-0.287-0.061l-1.129,3.133l-0.824,2.285
				c0.357,0.094,0.72,0.176,1.089,0.244c2.51,0.462,4.989,0.246,7.248-0.515l-0.808-2.153l-1.183-3.154
				C46.23,53.934,44.831,54.029,43.415,53.77z"/>
		</g>
		<g>
			<path fill="#F2F2F2" d="M27.734,40.891l3.117,0.574l2.584,0.476l3.144,0.579c0.455-1.495,1.284-2.797,2.363-3.819l-2.014-2.48
				l-1.624-2l-2.025-2.493C30.617,34.074,28.63,37.223,27.734,40.891z"/>
		</g>
		<g>
			<path fill="#F2F2F2" d="M27.501,21.734l0.348,0.429l2.31,2.844l0.964,1.186l3.58,4.407l2.038,2.51l1.616,1.989l2.024,2.492
				c1.222-0.753,2.631-1.211,4.111-1.297l0.054-3.239l0.042-2.452l0.056-3.339l0.095-5.673l0.026-1.527l0.069-4.043l0.005-0.295
				C38.445,15.814,32.395,18.002,27.501,21.734z"/>
		</g>
		<g>
			<path fill="#F2F2F2" d="M24.237,56.075l4.924-2.826l2.785-1.598l2.239-1.285l2.804-1.61c-0.621-1.359-0.903-2.885-0.759-4.454
				l-3.144-0.58l-2.58-0.474l-3.113-0.573l-5.581-1.028C21.04,46.772,21.988,51.785,24.237,56.075z"/>
		</g>
		<g>
			<path fill="#F2F2F2" d="M53.683,46.693c-0.111,0.604-0.282,1.182-0.504,1.729l2.971,1.677c0.386-0.866,0.68-1.787,0.86-2.761
				c0.217-1.18,0.252-2.35,0.13-3.484l-3.335,0.582C53.86,45.174,53.823,45.931,53.683,46.693z"/>
		</g>
		<g>
			<path fill="#F2F2F2" d="M49.201,52.854l1.192,3.18l0.8,2.135l1.236,3.294c3.236-1.456,6.005-3.857,7.897-6.92l-3.125-1.763
				l-1.917-1.084l-2.962-1.672C51.521,51.214,50.445,52.182,49.201,52.854z"/>
		</g>
		<g>
			<path fill="#F2F2F2" d="M46.557,21.636l-0.096,5.677l-0.057,3.369l-0.041,2.429l-0.056,3.267c0.1,0.014,0.2,0.029,0.299,0.047
				c1.299,0.239,2.478,0.754,3.491,1.47l2.142-2.529l1.49-1.759l2.254-2.66l3.668-4.33c-2.906-2.287-6.394-3.921-10.283-4.636
				C48.427,21.809,47.488,21.696,46.557,21.636z"/>
		</g>
		<g>
			<path fill="#F2F2F2" d="M64.805,23.343l-2.783,3.285l-0.987,1.166l-3.671,4.332l-2.267,2.677l-1.476,1.742l-2.155,2.544
				c0.936,1.008,1.629,2.228,2.016,3.56l3.329-0.581l2.175-0.38l3.534-0.617l5.596-0.977l1.504-0.264l4.232-0.738l0.113-0.019
				c-1.274-6.129-4.487-11.672-9.083-15.82L64.805,23.343z"/>
		</g>
	</g>
	<g>
		<path fill="#F2F2F2" d="M97.158,31.496c-0.753-0.376-1.506-0.527-2.183-0.527c-2.033,0-2.937,1.581-2.937,4.291v4.292h4.292v1.054
			h-4.292v16.939h-1.129V40.605h-2.484v-0.903l2.484-0.151v-4.442c0-3.539,1.581-5.195,4.141-5.195c0.753,0,1.656,0.226,2.484,0.603
			L97.158,31.496z"/>
		<path fill="#F2F2F2" d="M106.27,39.1c4.292,0,7.98,3.463,7.98,9.486c0,5.947-3.689,9.411-7.98,9.411s-7.98-3.464-7.98-9.411
			C98.289,42.563,101.978,39.1,106.27,39.1z M106.27,56.942c3.84,0,6.776-3.388,6.776-8.356c0-4.969-2.936-8.432-6.776-8.432
			s-6.776,3.463-6.776,8.432C99.494,53.555,102.43,56.942,106.27,56.942z"/>
		<path fill="#F2F2F2" d="M126.299,39.1c4.292,0,7.98,3.463,7.98,9.486c0,5.947-3.689,9.411-7.98,9.411s-7.98-3.464-7.98-9.411
			C118.319,42.563,122.008,39.1,126.299,39.1z M126.299,56.942c3.839,0,6.776-3.388,6.776-8.356c0-4.969-2.937-8.432-6.776-8.432
			c-3.84,0-6.776,3.463-6.776,8.432C119.523,53.555,122.459,56.942,126.299,56.942z"/>
		<path fill="#F2F2F2" d="M146.405,39.1c2.183,0,3.688,0.828,5.571,2.259L151.9,37.97v-7.604h1.13v27.179h-0.979l-0.151-2.409
			h-0.075c-1.506,1.506-3.538,2.861-6.022,2.861c-4.518,0-7.454-3.313-7.454-9.411C138.349,42.789,142.038,39.1,146.405,39.1z
			 M145.878,56.942c2.108,0,3.99-1.129,6.022-3.162V42.638c-2.032-1.807-3.688-2.484-5.571-2.484c-3.839,0-6.775,3.764-6.775,8.432
			C139.554,53.555,141.813,56.942,145.878,56.942z"/>
		<path fill="#F2F2F2" d="M167.189,39.25h2.56l0.264,2.635h0.112c1.581-1.731,3.501-3.087,5.685-3.087
			c2.786,0,4.291,1.318,5.044,3.501c1.92-2.07,3.803-3.501,6.023-3.501c3.765,0,5.571,2.485,5.571,7.153v11.594h-3.087v-11.18
			c0-3.426-1.092-4.894-3.388-4.894c-1.431,0-2.898,0.941-4.593,2.823v13.25h-3.087v-11.18c0-3.426-1.092-4.894-3.426-4.894
			c-1.354,0-2.898,0.941-4.592,2.823v13.25h-3.087V39.25z"/>
		<path fill="#F2F2F2" d="M205.252,38.798c4.668,0,7.303,3.351,7.303,8.583c0,0.641-0.037,1.242-0.112,1.694h-12.348
			c0.227,3.952,2.598,6.437,6.099,6.437c1.731,0,3.2-0.564,4.555-1.43l1.092,2.032c-1.581,1.017-3.538,1.883-6.022,1.883
			c-4.895,0-8.771-3.576-8.771-9.562C197.046,42.45,201.074,38.798,205.252,38.798z M209.845,47.042
			c0-3.726-1.656-5.797-4.518-5.797c-2.56,0-4.894,2.108-5.27,5.797H209.845z"/>
		<path fill="#F2F2F2" d="M216.587,53.404c1.581,1.279,3.199,2.184,5.383,2.184c2.409,0,3.613-1.28,3.613-2.861
			c0-1.882-2.183-2.71-4.178-3.463c-2.598-0.941-5.459-2.184-5.459-5.271c0-2.936,2.334-5.195,6.287-5.195
			c2.296,0,4.291,0.941,5.684,2.07l-1.468,1.958c-1.242-0.941-2.56-1.619-4.179-1.619c-2.296,0-3.35,1.242-3.35,2.635
			c0,1.694,1.995,2.371,4.065,3.162c2.635,0.979,5.571,2.07,5.571,5.533c0,2.974-2.372,5.459-6.701,5.459
			c-2.597,0-5.082-1.092-6.813-2.522L216.587,53.404z"/>
		<path fill="#F2F2F2" d="M232.851,30.743h3.087v7.303l-0.113,3.765c1.731-1.656,3.576-3.012,6.099-3.012
			c3.839,0,5.571,2.485,5.571,7.153v11.594h-3.087v-11.18c0-3.426-1.055-4.894-3.464-4.894c-1.882,0-3.162,0.979-5.006,2.823v13.25
			h-3.087V30.743z"/>
	</g>
</g>
<g>
	<g>
		<g>
			<path fill="#F2F2F2" d="M36.089,51.94l-2.222,1.276l-2.8,1.607l-4.923,2.827l-1.326,0.761l-2.762,1.585l-0.714,0.41
				c3.256,5.275,8.168,9.505,14.164,11.868l0.26-0.722l1.11-3.079l0.518-1.436l1.925-5.339l1.133-3.141l0.832-2.306l1.119-3.107
				c-1.413-0.632-2.606-1.615-3.493-2.822L36.089,51.94z"/>
		</g>
		<g>
			<path fill="#F2F2F2" d="M44.415,53.77c-0.097-0.018-0.191-0.04-0.287-0.061l-1.129,3.133l-0.824,2.285
				c0.357,0.094,0.72,0.176,1.089,0.244c2.51,0.462,4.989,0.246,7.248-0.515l-0.808-2.153l-1.183-3.154
				C47.23,53.934,45.831,54.029,44.415,53.77z"/>
		</g>
		<g>
			<path fill="#F2F2F2" d="M28.734,40.891l3.117,0.574l2.584,0.476l3.144,0.579c0.455-1.495,1.284-2.797,2.363-3.819l-2.014-2.48
				l-1.624-2l-2.025-2.493C31.617,34.074,29.63,37.223,28.734,40.891z"/>
		</g>
		<g>
			<path fill="#F2F2F2" d="M28.501,21.734l0.348,0.429l2.31,2.844l0.964,1.186l3.58,4.407l2.038,2.51l1.616,1.989l2.024,2.492
				c1.222-0.753,2.631-1.211,4.111-1.297l0.054-3.239l0.042-2.452l0.056-3.339l0.095-5.673l0.026-1.527l0.069-4.043l0.005-0.295
				C39.445,15.814,33.395,18.002,28.501,21.734z"/>
		</g>
		<g>
			<path fill="#F2F2F2" d="M25.237,56.075l4.924-2.826l2.785-1.598l2.239-1.285l2.804-1.61c-0.621-1.359-0.903-2.885-0.759-4.454
				l-3.144-0.58l-2.58-0.474l-3.113-0.573l-5.581-1.028C22.04,46.772,22.988,51.785,25.237,56.075z"/>
		</g>
		<g>
			<path fill="#F2F2F2" d="M54.683,46.693c-0.111,0.604-0.282,1.182-0.504,1.729l2.971,1.677c0.386-0.866,0.68-1.787,0.86-2.761
				c0.217-1.18,0.252-2.35,0.13-3.484l-3.335,0.582C54.86,45.174,54.823,45.931,54.683,46.693z"/>
		</g>
		<g>
			<path fill="#F2F2F2" d="M50.201,52.854l1.192,3.18l0.8,2.135l1.236,3.294c3.236-1.456,6.005-3.857,7.897-6.92l-3.125-1.763
				l-1.917-1.084l-2.962-1.672C52.521,51.214,51.445,52.182,50.201,52.854z"/>
		</g>
		<g>
			<path fill="#F2F2F2" d="M47.557,21.636l-0.096,5.677l-0.057,3.369l-0.041,2.429l-0.056,3.267c0.1,0.014,0.2,0.029,0.299,0.047
				c1.299,0.239,2.478,0.754,3.491,1.47l2.142-2.529l1.49-1.759l2.254-2.66l3.668-4.33c-2.906-2.287-6.394-3.921-10.283-4.636
				C49.427,21.809,48.488,21.696,47.557,21.636z"/>
		</g>
		<g>
			<path fill="#F2F2F2" d="M65.805,23.343l-2.783,3.285l-0.987,1.166l-3.671,4.332l-2.267,2.677l-1.476,1.742l-2.155,2.544
				c0.936,1.008,1.629,2.228,2.016,3.56l3.329-0.581l2.175-0.38l3.534-0.617l5.596-0.977l1.504-0.264l4.232-0.738l0.113-0.019
				c-1.274-6.129-4.487-11.672-9.083-15.82L65.805,23.343z"/>
		</g>
	</g>
	<g>
		<path fill="#F2F2F2" d="M98.158,31.496c-0.753-0.376-1.506-0.527-2.183-0.527c-2.033,0-2.937,1.581-2.937,4.291v4.292h4.292v1.054
			h-4.292v16.939h-1.129V40.605h-2.484v-0.903l2.484-0.151v-4.442c0-3.539,1.581-5.195,4.141-5.195c0.753,0,1.656,0.226,2.484,0.603
			L98.158,31.496z"/>
		<path fill="#F2F2F2" d="M107.27,39.1c4.292,0,7.98,3.463,7.98,9.486c0,5.947-3.689,9.411-7.98,9.411s-7.98-3.464-7.98-9.411
			C99.289,42.563,102.978,39.1,107.27,39.1z M107.27,56.942c3.84,0,6.776-3.388,6.776-8.356c0-4.969-2.936-8.432-6.776-8.432
			s-6.776,3.463-6.776,8.432C100.494,53.555,103.43,56.942,107.27,56.942z"/>
		<path fill="#F2F2F2" d="M127.299,39.1c4.292,0,7.98,3.463,7.98,9.486c0,5.947-3.689,9.411-7.98,9.411s-7.98-3.464-7.98-9.411
			C119.319,42.563,123.008,39.1,127.299,39.1z M127.299,56.942c3.839,0,6.776-3.388,6.776-8.356c0-4.969-2.937-8.432-6.776-8.432
			c-3.84,0-6.776,3.463-6.776,8.432C120.523,53.555,123.459,56.942,127.299,56.942z"/>
		<path fill="#F2F2F2" d="M147.405,39.1c2.183,0,3.688,0.828,5.571,2.259L152.9,37.97v-7.604h1.13v27.179h-0.979l-0.151-2.409
			h-0.075c-1.506,1.506-3.538,2.861-6.022,2.861c-4.518,0-7.454-3.313-7.454-9.411C139.349,42.789,143.038,39.1,147.405,39.1z
			 M146.878,56.942c2.108,0,3.99-1.129,6.022-3.162V42.638c-2.032-1.807-3.688-2.484-5.571-2.484c-3.839,0-6.775,3.764-6.775,8.432
			C140.554,53.555,142.813,56.942,146.878,56.942z"/>
		<path fill="#F2F2F2" d="M168.189,39.25h2.56l0.264,2.635h0.112c1.581-1.731,3.501-3.087,5.685-3.087
			c2.786,0,4.291,1.318,5.044,3.501c1.92-2.07,3.803-3.501,6.023-3.501c3.765,0,5.571,2.485,5.571,7.153v11.594h-3.087v-11.18
			c0-3.426-1.092-4.894-3.388-4.894c-1.431,0-2.898,0.941-4.593,2.823v13.25h-3.087v-11.18c0-3.426-1.092-4.894-3.426-4.894
			c-1.354,0-2.898,0.941-4.592,2.823v13.25h-3.087V39.25z"/>
		<path fill="#F2F2F2" d="M206.252,38.798c4.668,0,7.303,3.351,7.303,8.583c0,0.641-0.037,1.242-0.112,1.694h-12.348
			c0.227,3.952,2.598,6.437,6.099,6.437c1.731,0,3.2-0.564,4.555-1.43l1.092,2.032c-1.581,1.017-3.538,1.883-6.022,1.883
			c-4.895,0-8.771-3.576-8.771-9.562C198.046,42.45,202.074,38.798,206.252,38.798z M210.845,47.042
			c0-3.726-1.656-5.797-4.518-5.797c-2.56,0-4.894,2.108-5.27,5.797H210.845z"/>
		<path fill="#F2F2F2" d="M217.587,53.404c1.581,1.279,3.199,2.184,5.383,2.184c2.409,0,3.613-1.28,3.613-2.861
			c0-1.882-2.183-2.71-4.178-3.463c-2.598-0.941-5.459-2.184-5.459-5.271c0-2.936,2.334-5.195,6.287-5.195
			c2.296,0,4.291,0.941,5.684,2.07l-1.468,1.958c-1.242-0.941-2.56-1.619-4.179-1.619c-2.296,0-3.35,1.242-3.35,2.635
			c0,1.694,1.995,2.371,4.065,3.162c2.635,0.979,5.571,2.07,5.571,5.533c0,2.974-2.372,5.459-6.701,5.459
			c-2.597,0-5.082-1.092-6.813-2.522L217.587,53.404z"/>
		<path fill="#F2F2F2" d="M233.851,30.743h3.087v7.303l-0.113,3.765c1.731-1.656,3.576-3.012,6.099-3.012
			c3.839,0,5.571,2.485,5.571,7.153v11.594h-3.087v-11.18c0-3.426-1.055-4.894-3.464-4.894c-1.882,0-3.162,0.979-5.006,2.823v13.25
			h-3.087V30.743z"/>
	</g>
</g>
</svg>
